<?xml version="1.0" encoding="UTF-8"?>
<svg version="1.1" xmlns="http://www.w3.org/2000/svg" width="569" height="547">
<path d="M0 0 C4.28433187 1.51269121 6.14835526 4.6951626 8.5625 8.3125 C11.93802104 13.21462277 15.45374524 17.83611083 19.375 22.3125 C45.78028375 52.85298621 64.27489279 91.85584887 61.76171875 132.890625 C60.29265444 151.22595653 54.97277483 167.9984774 46 184 C45.41089844 185.08925781 44.82179688 186.17851562 44.21484375 187.30078125 C38.67341712 197.23495609 31.471584 205.49477692 24 214 C24.68102783 214.01981934 25.36205566 214.03963867 26.0637207 214.06005859 C29.14703917 214.15526983 32.22967649 214.26496466 35.3125 214.375 C36.38435547 214.4059375 37.45621094 214.436875 38.56054688 214.46875 C40.10258789 214.52675781 40.10258789 214.52675781 41.67578125 214.5859375 C42.62364502 214.6173584 43.57150879 214.6487793 44.5480957 214.68115234 C47 215 47 215 50 217 C49.32780061 220.80912987 48.24639299 224.34188725 47 228 C47.87398438 227.32195312 48.74796875 226.64390625 49.6484375 225.9453125 C72.08241013 208.84200095 97.41358165 196.97405574 126 196 C126.77730469 195.96003906 127.55460937 195.92007813 128.35546875 195.87890625 C165.61090547 194.81803117 200.98077269 212.80172797 229 236 C231.49254031 238.03014576 233.99430297 240.04862174 236.5 242.0625 C237.1401001 242.57699707 237.7802002 243.09149414 238.43969727 243.62158203 C243.47456405 247.64045586 248.64231377 251.41980497 254 255 C253.890625 257.2109375 253.890625 257.2109375 253 260 C250.93422636 261.74934011 249.00650729 263.17078652 246.75 264.625 C241.80751975 267.96872054 237.16990013 271.43652202 232.6875 275.375 C202.15341852 301.78348779 163.13916659 320.27458751 122.109375 317.76171875 C103.77404347 316.29265444 87.0015226 310.97277483 71 302 C69.91074219 301.41089844 68.82148438 300.82179688 67.69921875 300.21484375 C60.91362733 296.42974256 54.91107923 292.03487943 49 287 C49.33 289.64 49.66 292.28 50 295 C41.75 295.33 33.5 295.66 25 296 C26.65 297.876875 28.3 299.75375 30 301.6875 C48.28895618 323.06826998 59.73378466 350.86627782 61 379 C61.061875 380.17369141 61.061875 380.17369141 61.125 381.37109375 C62.13061841 418.64182604 44.21603432 453.95931912 21 482 C18.96985424 484.49254031 16.95137826 486.99430297 14.9375 489.5 C14.42300293 490.1401001 13.90850586 490.7802002 13.37841797 491.43969727 C9.35954414 496.47456405 5.58019503 501.64231377 2 507 C-0.2109375 506.890625 -0.2109375 506.890625 -3 506 C-4.74934011 503.93422636 -6.17078652 502.00650729 -7.625 499.75 C-10.96872054 494.80751975 -14.43652202 490.16990013 -18.375 485.6875 C-44.78348779 455.15341852 -63.27458751 416.13916659 -60.76171875 375.109375 C-59.29153896 356.76012117 -53.95355979 340.02192282 -45 324 C-44.16855469 322.43572266 -44.16855469 322.43572266 -43.3203125 320.83984375 C-38.4216811 311.94496042 -32.20228782 303.20228782 -25 296 C-33.25 295.67 -41.5 295.34 -50 295 C-51.28485596 289.86057616 -50.22194431 288.62164416 -48 284 C-49.546875 285.2065625 -49.546875 285.2065625 -51.125 286.4375 C-73.5631941 303.16773244 -98.64508339 314.72382935 -127 316 C-128.17369141 316.061875 -128.17369141 316.061875 -129.37109375 316.125 C-166.64182604 317.13061841 -201.95931912 299.21603432 -230 276 C-232.49254031 273.96985424 -234.99430297 271.95137826 -237.5 269.9375 C-238.1401001 269.42300293 -238.7802002 268.90850586 -239.43969727 268.37841797 C-244.47456405 264.35954414 -249.64231377 260.58019503 -255 257 C-254.890625 254.7890625 -254.890625 254.7890625 -254 252 C-251.93422636 250.25065989 -250.00650729 248.82921348 -247.75 247.375 C-242.80751975 244.03127946 -238.16990013 240.56347798 -233.6875 236.625 C-205.28073357 212.05639639 -170.14747273 194.54570179 -132.125 194.5625 C-131.39933838 194.56176483 -130.67367676 194.56102966 -129.92602539 194.56027222 C-101.31430501 194.63614973 -75.79698526 204.70234972 -53.328125 222.21484375 C-51.14159549 224.00810031 -51.14159549 224.00810031 -49 225 C-49.350625 224.2575 -49.70125 223.515 -50.0625 222.75 C-51.04877778 219.85691852 -51.09422236 218.78529329 -50 216 C-48.19605125 214.19605125 -45.43322201 214.76294211 -42.99609375 214.68359375 C-41.17368164 214.62075195 -41.17368164 214.62075195 -39.31445312 214.55664062 C-38.03505859 214.51732422 -36.75566406 214.47800781 -35.4375 214.4375 C-34.15423828 214.39431641 -32.87097656 214.35113281 -31.54882812 214.30664062 C-28.36600147 214.200152 -25.18309326 214.09814038 -22 214 C-22.66483398 213.31019043 -23.32966797 212.62038086 -24.01464844 211.90966797 C-45.03814363 189.89023144 -58.95811514 159.57705567 -60 129 C-60.03996094 128.22269531 -60.07992187 127.44539063 -60.12109375 126.64453125 C-61.18208523 89.38500686 -43.19550551 54.02446307 -20 26 C-17.99097273 23.52805995 -15.99374365 21.04677772 -14 18.5625 C-13.48808105 17.92497803 -12.97616211 17.28745605 -12.44873047 16.63061523 C-8.12045185 11.21092386 -4.00405644 5.6645622 0 0 Z M0 106 C-0.39304119 114.4843501 -0.78434253 122.96877793 -1.17345428 131.45330906 C-1.35420949 135.39347292 -1.53555235 139.33360787 -1.71826172 143.27368164 C-1.89473135 147.07967304 -2.06962662 150.88573389 -2.24345398 154.69184685 C-2.30987578 156.14024345 -2.37685431 157.58861464 -2.44441223 159.03695869 C-2.53930826 161.07348309 -2.6321817 163.1100908 -2.72460938 165.14672852 C-2.77790405 166.30366714 -2.83119873 167.46060577 -2.8861084 168.65260315 C-3.00355163 172.10438637 -3.0193515 175.54649527 -3 179 C-1.68 179 -0.36 179 1 179 C1.99 180.98 2.98 182.96 4 185 C4.33 185 4.66 185 5 185 C5.0965281 175.41237196 4.80058964 165.8670988 4.34375 156.29296875 C4.27622883 154.83182455 4.20897311 153.37066807 4.14196777 151.90950012 C3.9670475 148.11029677 3.78858315 144.31126836 3.60931396 140.51226807 C3.42615301 136.6170042 3.24643578 132.7215815 3.06640625 128.82617188 C2.71425831 121.21729073 2.35835638 113.60859154 2 106 C1.34 106 0.68 106 0 106 Z M-1 187 C-3.99320842 193.74285267 -4.68637386 199.85312874 -5 207.1875 C-5.07605469 208.25419922 -5.15210938 209.32089844 -5.23046875 210.41992188 C-5.6375135 215.86019646 -5.6375135 215.86019646 -3.8828125 220.85009766 C-2.40721027 222.4113001 -2.40721027 222.4113001 0 224 C2.89014361 222.70441838 4.98680921 221.46515337 7 219 C7.54200252 215.87069518 7.24045647 212.72578481 7.0625 209.5625 C7.01746338 208.66756836 6.97242676 207.77263672 6.92602539 206.85058594 C6.35766695 199.13983318 4.31235593 193.48831535 0 187 C-0.33 187 -0.66 187 -1 187 Z M-45 220 C-41.11402826 232.51765949 -41.11402826 232.51765949 -32.83203125 242.421875 C-31 244 -31 244 -29.73193359 246.046875 C-27.39366764 248.68376922 -25.92883945 248.60769273 -22.45703125 248.828125 C-21.38388672 248.90546875 -20.31074219 248.9828125 -19.20507812 249.0625 C-18.08552734 249.124375 -16.96597656 249.18625 -15.8125 249.25 C-14.68134766 249.32734375 -13.55019531 249.4046875 -12.38476562 249.484375 C-9.59049768 249.67301756 -6.79625885 249.84417722 -4 250 C-4.07551098 246.49484354 -4.24821224 243.00071001 -4.4375 239.5 C-4.4674707 238.02660156 -4.4674707 238.02660156 -4.49804688 236.5234375 C-4.8464378 231.02252811 -5.79584233 227.39186731 -9.625 223.3125 C-15.93340488 218.41721303 -23.00707251 219.12146978 -30.5625 219.5 C-31.96669452 219.54020786 -33.37100073 219.57669577 -34.77539062 219.609375 C-38.18648423 219.70315077 -41.59177051 219.83428898 -45 220 Z M9.61157227 225.48242188 C6.67290894 230.07316513 6.54100602 234.66443163 6.4375 240 C6.38271484 241.06089844 6.32792969 242.12179687 6.27148438 243.21484375 C6.14285955 245.81072656 6.05338606 248.40166534 6 251 C6.65734131 250.9985498 7.31468262 250.99709961 7.99194336 250.99560547 C8.86987549 250.99447754 9.74780762 250.99334961 10.65234375 250.9921875 C11.56741699 250.99057617 12.48249023 250.98896484 13.42529297 250.98730469 C15.30626664 250.99657935 17.18717156 251.0514189 19.06640625 251.1328125 C24.56662894 251.11559741 27.74834946 250.02354074 31.6875 246.125 C36.65234391 239.9861587 44 228.09130207 44 220 C39.68843121 219.76565112 35.37851641 219.62490797 31.0625 219.5 C29.85013672 219.43296875 28.63777344 219.3659375 27.38867188 219.296875 C19.84635863 219.13335601 14.95884752 219.89662259 9.61157227 225.48242188 Z M-40.97962379 248.8319912 C-41.79633238 248.8707065 -42.61304096 248.90942181 -43.45449829 248.9493103 C-44.39121872 248.98863174 -45.32793915 249.02795319 -46.29304504 249.06846619 C-47.32378647 249.12241043 -48.35452789 249.17635468 -49.41650391 249.23193359 C-50.49944229 249.28040939 -51.58238068 249.32888519 -52.69813538 249.37882996 C-56.29147709 249.54215284 -59.88392925 249.72025879 -63.4765625 249.8984375 C-65.96230935 250.0143046 -68.44809918 250.1292531 -70.93392944 250.24331665 C-76.81684007 250.51548812 -82.6992492 250.79694846 -88.58150613 251.08287489 C-95.93410552 251.43970467 -103.28736161 251.78217546 -110.640625 252.125 C-123.7609782 252.7384459 -136.88068714 253.36471315 -150 254 C-150 254.66 -150 255.32 -150 256 C-113.04 257.65 -76.08 259.3 -38 261 C-35.82243947 256.64487894 -35.8183513 255.52965335 -37 251 C-38.76442367 248.80572475 -38.76442367 248.80572475 -40.97962379 248.8319912 Z M37 251 C34.69254065 253.75310083 34.69254065 253.75310083 35.3125 256.5 C35.82098672 258.34904262 36.39357462 260.18072387 37 262 C59.17977203 262.42721872 81.2948583 261.20637623 103.44140625 260.14575195 C108.59095443 259.90035921 113.74080213 259.6614213 118.890625 259.421875 C128.92737966 258.95409029 138.96379217 258.47936427 149 258 C149 257.34 149 256.68 149 256 C134.43242781 255.27756315 119.86409036 254.57288448 105.29466438 253.88880634 C98.53015606 253.57087558 91.76601646 253.24716 85.00244141 252.90991211 C78.48030239 252.58471896 71.95752068 252.27553188 65.43413925 251.97627831 C62.94029947 251.85921978 60.44670931 251.73671727 57.95340347 251.60878944 C54.47219786 251.43108842 50.99062269 251.27243133 47.50830078 251.1184082 C45.94816254 251.03209892 45.94816254 251.03209892 44.35650635 250.94404602 C42.93880447 250.88712585 42.93880447 250.88712585 41.49246216 250.82905579 C40.66837923 250.78941869 39.8442963 250.74978159 38.99524117 250.70894337 C38.33681158 250.80499206 37.678382 250.90104074 37 251 Z M-31.40625 264.08984375 C-37.35888465 270.34562183 -44 281.08039864 -44 290 C-39.81322658 290.20437527 -35.6277435 290.32799497 -31.4375 290.4375 C-30.25607422 290.49615234 -29.07464844 290.55480469 -27.85742188 290.61523438 C-21.4788931 290.86705824 -21.4788931 290.86705824 -15.73876953 288.51611328 C-14.01027556 286.76177267 -12.51666903 284.93666969 -11 283 C-10.21109375 282.46632813 -9.4221875 281.93265625 -8.609375 281.3828125 C-6.77670783 280.07547292 -6.77670783 280.07547292 -6.390625 277.6171875 C-6.34421875 276.71226562 -6.2978125 275.80734375 -6.25 274.875 C-6.19457031 273.90691406 -6.13914062 272.93882812 -6.08203125 271.94140625 C-5.97085254 267.95485553 -5.93462423 263.9879221 -6 260 C-19.24569237 259.76163553 -19.24569237 259.76163553 -31.40625 264.08984375 Z M6 263 C5.38139139 275.39593563 5.38139139 275.39593563 11 286.0625 C19.80321904 293.0086982 32.44098411 290.7902545 43 290 C41.44715572 281.73020137 37.91437802 275.21249424 31.6484375 269.5703125 C30 268 30 268 28.60546875 265.8515625 C27.13052063 263.79720089 27.13052063 263.79720089 24.65234375 263.390625 C23.30849609 263.32101562 23.30849609 263.32101562 21.9375 263.25 C20.97070312 263.19457031 20.00390625 263.13914062 19.0078125 263.08203125 C14.66911886 262.96370324 10.33963393 262.9152783 6 263 Z M-3.625 285.765625 C-6.23606569 288.49572457 -6.35503423 290.71073792 -6.375 294.421875 C-6.27688509 296.53267138 -6.15091394 298.6423205 -6 300.75 C-5.95488281 301.79671875 -5.90976562 302.8434375 -5.86328125 303.921875 C-5.29090817 314.83951032 -5.29090817 314.83951032 0 324 C4.59366253 316.43077608 5.89561362 309.97195563 6.125 301.1875 C6.19203125 300.08212891 6.2590625 298.97675781 6.328125 297.83789062 C6.66146411 292.27699961 6.66146411 292.27699961 4.94433594 287.12744141 C3.52219415 285.53681221 3.52219415 285.53681221 1 284 C-1.25067065 283.81396171 -1.25067065 283.81396171 -3.625 285.765625 Z M3 328 C2.34 329.32 1.68 330.64 1 332 C0.01 332 -0.98 332 -2 332 C-2.66 331.34 -3.32 330.68 -4 330 C-3.73438069 336.71797211 -3.46773139 343.43590283 -3.20043945 350.15380859 C-3.11004539 352.42853926 -3.01986819 354.70327855 -2.92993164 356.97802734 C-2.3363057 371.98780955 -1.70056879 386.99481604 -1 402 C-0.34 402 0.32 402 1 402 C1.39331707 393.53293328 1.78463687 385.06577754 2.17345428 376.59850311 C2.35408718 372.66620909 2.53539057 368.73394843 2.71826172 364.80175781 C2.89493675 361.00225494 3.06980424 357.20267269 3.24345398 353.4030304 C3.30979435 351.95824759 3.37677017 350.51349381 3.44441223 349.06877136 C3.77294703 342.04353838 4.0946373 335.03470577 4 328 C3.67 328 3.34 328 3 328 Z " fill="#93D9E4" transform="translate(273,25)"/>
</svg>
